<?xml version="1.0" encoding="UTF-8" standalone="no"?>
<!DOCTYPE svg PUBLIC "-//W3C//DTD SVG 1.1//EN" "http://www.w3.org/Graphics/SVG/1.1/DTD/svg11.dtd">
<svg width="100%" height="100%" viewBox="0 0 2481 3508" version="1.1" xmlns="http://www.w3.org/2000/svg" xmlns:xlink="http://www.w3.org/1999/xlink" xml:space="preserve" xmlns:serif="http://www.serif.com/" style="fill-rule:evenodd;clip-rule:evenodd;stroke-linejoin:round;stroke-miterlimit:2;">
    <g id="Layer-1" serif:id="Layer 1" transform="matrix(11.811,0,0,11.811,0,0)">
        <g id="path1" transform="matrix(1.25865,0,0,1.19275,-28.9486,-16.7542)">
            <path d="M66.078,213.604C66.052,213.531 66.019,184.897 66.006,149.973L65.981,86.474L44.528,86.474C32.728,86.474 23.042,86.44 23.003,86.399C22.964,86.357 23.265,85.839 23.671,85.248C24.077,84.656 24.567,83.939 24.76,83.655C26.323,81.351 30.136,75.738 31.857,73.207C32.169,72.749 32.626,72.071 32.874,71.7C33.319,71.034 33.706,70.461 36.825,65.857C37.696,64.571 38.46,63.484 38.522,63.441C38.584,63.398 72.657,63.362 114.24,63.361C180.169,63.36 189.845,63.379 189.845,63.513C189.845,63.648 185.295,71.011 181.943,76.301C181.303,77.311 180.634,78.387 180.456,78.692C180.149,79.22 178.228,82.295 176.44,85.119L175.617,86.421L134.267,86.421C102.24,86.421 92.891,86.45 92.798,86.548C92.704,86.647 92.677,98.936 92.676,141.2C92.673,198.843 92.692,196.255 92.266,197.947C91.682,200.267 90.869,202.152 89.536,204.279C86.83,208.594 82.495,211.945 77.992,213.203C76.237,213.693 75.653,213.736 70.762,213.737C67.144,213.737 66.115,213.708 66.078,213.604L66.078,213.604Z" style="fill:rgb(3,20,47);fill-rule:nonzero;"/>
        </g>
        <g id="path11" serif:id="path1" transform="matrix(0.0846667,0,0,0.0846667,0,0)">
            <path d="M1219.32,1564.91C1217.92,1561.49 1217.92,1223.25 1219.32,1219.82C1220.34,1217.33 1250.61,1217.2 1825.69,1217.2C2215.81,1217.2 2431.32,1217.72 2431.89,1218.66C2432.38,1219.46 2427.9,1227.25 2421.93,1235.98C2415.95,1244.71 2404.7,1261.46 2396.92,1273.2C2368.03,1316.79 2337.96,1361.51 2333.52,1367.49C2331,1370.88 2311.87,1399.26 2291,1430.55C2211.22,1550.17 2202.96,1562.37 2200.05,1564.91C2197.2,1567.4 2171.65,1567.54 1708.72,1567.54C1245.04,1567.54 1220.34,1567.41 1219.32,1564.91Z" style="fill:rgb(3,79,254);"/>
        </g>
        <g id="path12" serif:id="path1" transform="matrix(0.0846667,0,0,0.0846667,-0.172788,-9.42309)">
            <path d="M1696.11,2112.14C1525.43,1968.16 1295.41,1829.27 1257.77,1806.55C1295.41,1829.27 1525.43,1968.16 1696.11,2112.14C1682.22,2112.4 1660.66,2112.49 1628.27,2112.49L1540.74,2112.49L1540.24,2336.69C1539.78,2542.65 1539.53,2561.74 1537.17,2571.3C1523.96,2625.05 1495.2,2675.69 1454.03,2717.69C1435.48,2736.62 1424.55,2745.61 1400.08,2762.05C1366.98,2784.28 1342.06,2795.45 1303.88,2805.18C1282.57,2810.6 1258.7,2812.86 1232.02,2811.98L1218.99,2811.55L1219.74,1765.91L1584.96,1765.53C1785.83,1765.32 1950.17,1765.52 1950.17,1765.97C1950.17,1766.42 1941.02,1780.4 1929.83,1797.04C1918.65,1813.67 1894.62,1849.52 1876.43,1876.69C1858.25,1903.87 1839.09,1932.33 1833.85,1939.94C1828.62,1947.55 1822.21,1956.99 1819.6,1960.9C1813.51,1970.05 1748.51,2067.26 1732.75,2090.78C1726.13,2100.67 1719.61,2109.59 1718.26,2110.62C1717.27,2111.38 1711.25,2111.85 1696.11,2112.14Z" style="fill:url(#_Linear1);"/>
        </g>
    </g>
    <defs>
        <linearGradient id="_Linear1" x1="0" y1="0" x2="1" y2="0" gradientUnits="userSpaceOnUse" gradientTransform="matrix(-28.0124,656.006,-656.006,-28.0124,1534.24,1865.23)"><stop offset="0" style="stop-color:rgb(3,79,254);stop-opacity:1"/><stop offset="1" style="stop-color:rgb(1,47,154);stop-opacity:1"/></linearGradient>
    </defs>
</svg>
